<?xml version="1.0" encoding="UTF-8" standalone="no"?>
<!DOCTYPE svg PUBLIC "-//W3C//DTD SVG 1.1//EN"
 "http://www.w3.org/Graphics/SVG/1.1/DTD/svg11.dtd">
<!-- Generated by graphviz version 16.0.0 (20260814.1018)
 -->
<!-- Title: G Pages: 1 -->
<svg width="316pt" height="79pt"
 viewBox="0.00 0.00 316.00 79.00" xmlns="http://www.w3.org/2000/svg" xmlns:xlink="http://www.w3.org/1999/xlink">
<g id="graph0" class="graph" transform="scale(1 1) rotate(0) translate(21.6 57.6)">
<title>G</title>
<polygon fill="#ffffff" stroke="none" points="-21.6,21.6 -21.6,-57.6 294.52,-57.6 294.52,21.6 -21.6,21.6"/>
<!-- API -->
<g id="node1" class="node">
<title>API</title>
<path fill="#fef3c7" stroke="#64748b" stroke-width="2" d="M42,-36C42,-36 12,-36 12,-36 6,-36 0,-30 0,-24 0,-24 0,-12 0,-12 0,-6 6,0 12,0 12,0 42,0 42,0 48,0 54,-6 54,-12 54,-12 54,-24 54,-24 54,-30 48,-36 42,-36"/>
<text xml:space="preserve" text-anchor="middle" x="27" y="-12.4" font-family="Helvetica,sans-Serif" font-size="13.00" fill="#0f172a">API</text>
</g>
<!-- PickeNetworkInterface -->
<g id="node2" class="node">
<title>PickeNetworkInterface</title>
<path fill="#e2e8f0" stroke="#64748b" stroke-dasharray="5,2" d="M260.92,-36C260.92,-36 124,-36 124,-36 118,-36 112,-30 112,-24 112,-24 112,-12 112,-12 112,-6 118,0 124,0 124,0 260.92,0 260.92,0 266.92,0 272.92,-6 272.92,-12 272.92,-12 272.92,-24 272.92,-24 272.92,-30 266.92,-36 260.92,-36"/>
<text xml:space="preserve" text-anchor="middle" x="192.46" y="-12.4" font-family="Helvetica,sans-Serif" font-size="13.00" fill="#0f172a">PickeNetworkInterface</text>
</g>
<!-- API&#45;&gt;PickeNetworkInterface -->
<g id="edge1" class="edge">
<title>API&#45;&gt;PickeNetworkInterface</title>
<path fill="none" stroke="#64748b" d="M54.99,-18C68.6,-18 85.94,-18 103.67,-18"/>
<polygon fill="#64748b" stroke="#64748b" points="103.32,-20.45 110.32,-18 103.32,-15.55 103.32,-20.45"/>
</g>
</g>
</svg>
