<?xml version="1.0" encoding="UTF-8" standalone="no"?>
<!DOCTYPE svg PUBLIC "-//W3C//DTD SVG 1.1//EN"
 "http://www.w3.org/Graphics/SVG/1.1/DTD/svg11.dtd">
<!-- Generated by graphviz version 16.0.0 (20260814.1018)
 -->
<!-- Title: G Pages: 1 -->
<svg width="145pt" height="79pt"
 viewBox="0.00 0.00 145.00 79.00" xmlns="http://www.w3.org/2000/svg" xmlns:xlink="http://www.w3.org/1999/xlink">
<g id="graph0" class="graph" transform="scale(1 1) rotate(0) translate(21.6 57.6)">
<title>G</title>
<polygon fill="#ffffff" stroke="none" points="-21.6,21.6 -21.6,-57.6 123.27,-57.6 123.27,21.6 -21.6,21.6"/>
<!-- PickeCoreUI -->
<g id="node1" class="node">
<title>PickeCoreUI</title>
<path fill="#e2e8f0" stroke="#64748b" stroke-width="2" d="M89.67,-36C89.67,-36 12,-36 12,-36 6,-36 0,-30 0,-24 0,-24 0,-12 0,-12 0,-6 6,0 12,0 12,0 89.67,0 89.67,0 95.67,0 101.67,-6 101.67,-12 101.67,-12 101.67,-24 101.67,-24 101.67,-30 95.67,-36 89.67,-36"/>
<text xml:space="preserve" text-anchor="middle" x="50.84" y="-12.4" font-family="Helvetica,sans-Serif" font-size="13.00" fill="#0f172a">PickeCoreUI</text>
</g>
</g>
</svg>
